<?xml version="1.0" standalone="no"?>
<!DOCTYPE svg PUBLIC "-//W3C//DTD SVG 20010904//EN"
 "http://www.w3.org/TR/2001/REC-SVG-20010904/DTD/svg10.dtd">
<svg version="1.0" xmlns="http://www.w3.org/2000/svg"
 width="320.000000pt" height="320.000000pt" viewBox="0 0 320.000000 320.000000"
 preserveAspectRatio="xMidYMid meet">
<metadata>
Created by potrace 1.11, written by Peter Selinger 2001-2013
</metadata>
<g transform="translate(0.000000,320.000000) scale(0.100000,-0.100000)"
fill="#000000" stroke="none">
<path d="M2 1603 l3 -1598 1598 -3 1597 -2 0 1600 0 1600 -1600 0 -1600 0 2
-1597z m2358 1153 l0 -293 235 -148 235 -148 -22 -38 -21 -37 -41 25 c-23 15
-70 45 -106 68 -36 23 -70 44 -77 48 -6 4 4 -22 23 -59 l34 -65 0 -303 c0
-299 0 -304 -23 -337 -14 -22 -38 -39 -64 -48 -37 -13 -64 -12 -304 17 -145
18 -274 32 -286 32 l-23 0 0 -315 0 -315 -155 0 -155 0 0 845 0 845 33 0 c54
0 455 -50 527 -66 17 -4 22 -2 15 5 -5 5 -149 97 -319 205 l-310 196 -30 -23
c-17 -13 -157 -110 -311 -217 -154 -106 -284 -197 -290 -202 -5 -5 24 5 64 23
99 41 250 79 320 79 84 0 119 -23 161 -105 l35 -68 0 -681 c0 -645 -1 -683
-19 -716 -23 -45 -64 -88 -98 -106 -22 -11 -105 -14 -448 -14 l-420 0 0 650
c0 358 -3 650 -6 650 -4 0 -42 -25 -85 -55 -43 -30 -82 -55 -86 -55 -4 0 -17
15 -29 33 l-21 32 605 420 c332 231 617 428 632 438 l28 18 166 -105 166 -106
0 145 0 145 235 0 235 0 0 -294z m53 -1412 l137 -28 0 -233 c0 -128 -1 -233
-2 -234 -2 0 -72 -6 -155 -12 l-153 -13 0 279 c0 260 1 278 18 273 9 -2 79
-17 155 -32z m-1347 -584 c40 -15 53 -39 54 -92 0 -35 -6 -54 -25 -77 l-26
-30 41 -66 c23 -37 40 -68 38 -70 -2 -1 -17 -1 -34 2 -26 4 -37 16 -68 69 -30
51 -43 64 -62 64 -23 0 -24 -3 -24 -65 0 -63 -1 -65 -25 -65 l-25 0 0 164 0
165 53 4 c28 2 57 4 64 5 6 1 24 -3 39 -8z m190 -53 c47 -88 47 -89 91 -8 33
61 42 71 66 71 15 0 27 -3 27 -7 0 -5 -25 -53 -55 -107 -52 -93 -55 -103 -55
-168 0 -66 -1 -68 -25 -68 -24 0 -25 2 -25 67 0 60 -4 73 -44 142 -24 42 -51
91 -60 109 l-17 33 33 -3 c29 -3 37 -10 64 -61z m424 38 c0 -23 -4 -24 -62
-27 l-63 -3 0 -40 0 -40 53 -3 c47 -3 52 -5 52 -27 0 -22 -5 -24 -52 -27 l-53
-3 -3 -77 c-3 -75 -4 -78 -27 -78 l-25 0 0 175 0 175 90 0 c89 0 90 0 90 -25z
m112 -94 c4 -129 17 -165 62 -177 73 -18 96 26 96 181 l0 115 31 0 31 0 -4
-133 c-2 -106 -7 -138 -21 -160 -56 -86 -186 -85 -229 3 -14 28 -18 61 -18
163 l0 127 24 0 c23 0 24 -2 28 -119z m449 103 c20 -10 29 -20 25 -30 -3 -9
-6 -20 -6 -24 0 -5 -12 -2 -27 6 -37 18 -77 18 -94 -2 -19 -23 -1 -45 64 -76
64 -31 77 -50 77 -108 0 -71 -69 -112 -150 -90 -46 12 -61 29 -54 57 l6 22 36
-20 c44 -23 61 -24 90 -3 43 30 21 71 -50 93 -112 36 -102 191 12 191 23 0 55
-7 71 -16z m-1464 -24 c43 -26 63 -68 63 -135 0 -73 -21 -112 -73 -136 -45
-20 -77 -23 -151 -13 l-46 7 0 142 c0 78 3 145 7 148 3 4 43 7 87 7 63 0 88
-4 113 -20z m1761 -9 c4 -23 2 -23 -65 -20 l-68 4 0 -35 0 -35 53 -3 c48 -3
52 -5 52 -28 0 -23 -3 -24 -55 -24 l-55 0 0 -45 0 -45 70 0 c62 0 70 -2 70
-19 0 -20 -49 -31 -141 -31 l-49 0 0 155 0 156 93 -3 c88 -3 92 -4 95 -27z
m-1860 -363 c14 -14 16 -48 3 -48 -5 0 -11 7 -15 15 -10 28 -34 16 -41 -21 -5
-27 -2 -41 9 -52 14 -14 16 -14 22 1 6 15 34 25 34 11 0 -36 -52 -58 -78 -32
-18 18 -15 103 4 122 18 19 45 21 62 4z m1809 -3 c8 -22 -4 -30 -21 -16 -10 9
-16 9 -21 1 -4 -6 -5 -12 -4 -14 2 -1 17 -10 32 -20 23 -14 28 -23 25 -49 -3
-28 -7 -32 -36 -35 -22 -2 -34 2 -38 13 -9 22 2 30 20 16 14 -12 36 -8 36 7 0
4 -14 15 -30 24 -22 13 -30 24 -30 46 0 16 3 32 7 35 12 13 54 7 60 -8z
m-1695 -70 c13 -62 13 -75 2 -75 -8 0 -14 7 -14 15 0 9 -9 15 -25 15 -16 0
-25 -6 -25 -15 0 -8 -4 -15 -10 -15 -15 0 -12 19 11 88 11 34 27 62 34 62 7 0
18 -29 27 -75z m93 38 c10 -60 12 -60 24 -15 9 31 17 42 31 42 17 0 20 -7 20
-44 0 -57 -10 -106 -22 -106 -6 0 -8 24 -6 54 3 62 -2 63 -17 4 -15 -59 -30
-57 -42 4 l-10 53 -2 -52 c-2 -83 -21 -63 -21 22 0 68 2 75 20 75 14 0 21 -9
25 -37z m1335 22 c0 -8 -7 -15 -16 -15 -14 0 -16 -8 -11 -59 5 -47 3 -60 -8
-65 -12 -4 -15 6 -15 59 0 51 -3 65 -15 65 -29 0 -15 19 18 23 17 2 35 5 40 5
4 1 7 -5 7 -13z m50 -37 c0 -29 3 -63 6 -75 5 -17 2 -23 -10 -23 -13 0 -16 13
-16 75 0 43 4 75 10 75 6 0 10 -24 10 -52z m120 42 c0 -5 -11 -10 -25 -10 -18
0 -25 -5 -25 -20 0 -13 7 -20 20 -20 11 0 20 -4 20 -10 0 -5 -9 -10 -20 -10
-13 0 -20 -7 -20 -20 0 -15 7 -20 25 -20 16 0 25 -6 25 -15 0 -10 -11 -15 -35
-15 -34 0 -35 1 -35 38 0 20 -3 54 -6 75 l-7 37 42 0 c22 0 41 -4 41 -10z
m-1315 -45 c0 -34 -4 -40 -25 -45 -18 -4 -26 -14 -28 -33 -7 -57 -22 -23 -22
49 l0 75 38 -3 c36 -3 37 -4 37 -43z m65 -14 c0 -59 14 -86 31 -60 5 8 9 38 9
67 0 28 5 52 10 52 13 0 13 -106 0 -131 -13 -24 -65 -26 -74 -3 -8 20 -8 82 0
112 12 42 24 22 24 -37z m165 43 c13 -14 14 -19 4 -25 -8 -4 -16 -3 -20 3 -4
6 -12 7 -19 3 -9 -6 -4 -16 20 -35 27 -22 32 -31 26 -53 -8 -35 -53 -48 -72
-22 -15 21 -8 43 9 26 15 -15 37 -14 37 2 0 8 -11 19 -25 25 -18 8 -25 19 -25
40 0 48 34 67 65 36z m695 7 c0 -5 -12 -12 -26 -15 -29 -8 -30 -42 -1 -40 9 1
17 -4 17 -12 0 -8 -9 -14 -20 -14 -13 0 -20 -7 -20 -20 0 -15 7 -20 25 -20 14
0 25 -4 25 -10 0 -5 -16 -10 -35 -10 l-35 0 0 75 0 75 35 0 c19 0 35 -4 35 -9z
m107 -46 c1 -27 4 -60 8 -72 5 -17 3 -23 -8 -23 -9 0 -18 13 -22 30 -4 17 -11
30 -16 30 -5 0 -9 -13 -9 -30 0 -16 -4 -30 -9 -30 -9 0 -21 71 -21 122 0 28 2
29 38 26 l37 -3 2 -50z m-579 33 c27 -27 7 -78 -30 -78 -13 0 -18 -8 -18 -30
0 -16 -4 -30 -10 -30 -6 0 -10 32 -10 75 l0 75 28 0 c15 0 33 -5 40 -12z m117
-8 c4 -11 4 -33 0 -48 -3 -16 -1 -41 5 -56 9 -24 8 -27 -7 -24 -9 2 -20 14
-23 27 -9 37 -30 38 -30 2 0 -17 -4 -31 -10 -31 -6 0 -10 32 -10 75 l0 75 34
0 c26 0 36 -5 41 -20z m120 -3 c11 -43 1 -109 -17 -121 -32 -20 -53 4 -56 64
-4 69 1 80 37 80 24 0 32 -5 36 -23z m120 -22 c0 -34 -3 -40 -22 -43 -18 -3
-23 -10 -23 -33 0 -19 -5 -29 -15 -29 -12 0 -15 15 -15 76 l0 75 38 -3 c36 -3
37 -4 37 -43z"/>
<path d="M1960 2852 c0 -110 3 -131 18 -144 9 -8 73 -50 142 -93 69 -43 135
-85 148 -93 l22 -14 0 236 0 236 -165 0 -165 0 0 -128z"/>
<path d="M948 2038 l-128 -42 0 -381 c0 -210 2 -384 4 -386 3 -2 79 1 171 6
210 14 209 13 213 148 2 50 -1 220 -6 376 -9 278 -9 285 -32 303 -33 27 -81
22 -222 -24z"/>
<path d="M1940 1966 l0 -113 78 -17 c100 -21 210 -30 256 -22 l36 7 0 74 c0
67 -2 75 -26 94 -38 30 -123 59 -221 76 -135 24 -123 33 -123 -99z"/>
<path d="M2460 1075 c0 -20 5 -25 25 -25 20 0 25 5 25 25 0 20 -5 25 -25 25
-20 0 -25 -5 -25 -25z"/>
<path d="M964 706 c-3 -8 -4 -31 -2 -52 3 -38 4 -39 43 -39 32 0 42 5 54 26
13 24 13 29 -2 53 -13 20 -26 26 -53 26 -20 0 -37 -6 -40 -14z"/>
<path d="M630 595 l0 -105 45 0 c35 0 51 6 74 28 43 39 46 118 6 157 -19 20
-34 25 -75 25 l-50 0 0 -105z"/>
<path d="M747 290 c-3 -13 0 -20 9 -20 8 0 14 9 14 20 0 11 -4 20 -9 20 -5 0
-11 -9 -14 -20z"/>
<path d="M1026 313 c-9 -22 12 -43 23 -24 10 15 4 41 -9 41 -4 0 -11 -8 -14
-17z"/>
<path d="M2060 305 c0 -17 5 -25 13 -22 6 2 12 12 12 22 0 10 -6 20 -12 23 -8
2 -13 -6 -13 -23z"/>
<path d="M1480 295 c0 -17 5 -25 13 -22 6 2 12 12 12 22 0 10 -6 20 -12 23 -8
2 -13 -6 -13 -23z"/>
<path d="M1593 304 c-9 -23 11 -38 26 -20 13 16 7 36 -10 36 -5 0 -12 -7 -16
-16z"/>
<path d="M1714 306 c-3 -8 -4 -29 -2 -48 4 -39 31 -46 36 -9 7 50 -20 95 -34
57z"/>
<path d="M1840 293 c0 -25 1 -26 16 -11 9 9 13 21 10 27 -13 20 -26 11 -26
-16z"/>
</g>
</svg>
